
<svg version="1.0" xmlns="http://www.w3.org/2000/svg"
 width="512.000000pt" height="512.000000pt" viewBox="0 0 512.000000 512.000000"
 preserveAspectRatio="xMidYMid meet">
<g transform="translate(0.000000,512.000000) scale(0.100000,-0.100000)"
fill="#000000" stroke="none">
<path d="M1580 3944 c-210 -45 -394 -224 -456 -444 -11 -38 -17 -112 -19 -245
-3 -183 -3 -184 4 -45 5 111 12 161 30 213 59 175 249 367 422 426 35 12 104
26 153 32 79 8 199 42 245 69 26 15 -304 11 -379 -6z"/>
<path d="M3315 3938 c-22 -12 -35 -22 -30 -24 6 -2 71 -10 145 -20 209 -25
321 -74 443 -192 97 -93 175 -223 198 -327 7 -31 8 -23 4 40 -10 204 -143 395
-340 490 -90 43 -152 55 -278 55 -84 -1 -109 -5 -142 -22z"/>
<path d="M2496 3734 c-224 -44 -429 -158 -612 -339 -55 -55 -111 -114 -122
-132 -12 -17 28 19 90 82 203 203 430 325 681 365 118 19 310 8 420 -24 347
-103 617 -389 712 -756 22 -85 35 -239 28 -338 -6 -78 -5 -84 12 -81 29 6 37
54 30 189 -11 255 -86 467 -232 658 -147 193 -402 344 -643 382 -90 14 -281
11 -364 -6z"/>
<path d="M1950 3303 c-242 -145 -361 -310 -405 -558 -28 -161 -11 -328 49
-475 153 -374 574 -660 974 -660 71 0 77 -2 118 -35 48 -40 45 -39 187 -9 270
58 528 247 645 472 42 80 79 192 84 252 l3 35 -52 3 -52 3 -5 -38 c-24 -158
-53 -231 -135 -333 -136 -170 -328 -279 -562 -319 -73 -13 -346 11 -454 39
-97 26 -240 92 -334 155 -203 136 -349 334 -402 546 -18 70 -21 104 -17 219 4
117 9 147 35 225 68 198 201 372 373 487 86 57 87 58 73 58 -5 0 -61 -30 -123
-67z"/>
<path d="M2421 3359 c-204 -31 -385 -148 -460 -297 -45 -89 -61 -162 -61 -277
0 -180 47 -300 166 -425 l74 -77 -50 -69 c-27 -38 -63 -86 -81 -106 -17 -21
-29 -38 -27 -38 3 0 29 8 59 19 133 45 219 109 288 212 45 67 50 85 24 74 -10
-4 -52 -16 -93 -26 l-75 -20 -56 60 c-105 114 -149 226 -149 386 0 244 117
411 335 477 92 29 287 31 385 5 141 -38 277 -132 337 -234 82 -141 83 -324 2
-459 -88 -145 -268 -239 -496 -259 l-81 -7 -46 -64 c-26 -35 -95 -109 -154
-165 l-107 -101 55 27 c81 41 179 106 233 157 48 45 49 45 136 51 92 7 235 43
304 78 136 69 245 182 299 309 54 131 51 298 -9 427 -72 154 -217 274 -393
322 -88 25 -265 35 -359 20z"/>
<path d="M1230 2740 c0 -277 3 -351 13 -347 9 3 12 81 12 347 0 266 -3 344
-12 348 -10 3 -13 -71 -13 -348z"/>
<path d="M2275 2948 c-77 -60 -73 -219 7 -268 62 -38 141 -19 178 43 25 40 26
125 3 174 -33 70 -131 96 -188 51z"/>
<path d="M2690 2958 c-46 -25 -70 -74 -70 -145 0 -73 17 -111 60 -137 55 -32
138 -10 173 46 38 60 28 162 -21 211 -34 34 -102 46 -142 25z"/>
<path d="M1182 2250 c-47 -60 -52 -88 -52 -287 0 -154 4 -203 20 -273 60 -250
249 -453 497 -534 l52 -17 -19 -52 c-10 -29 -31 -87 -48 -129 -17 -43 -27 -78
-23 -78 5 0 28 15 52 33 78 59 260 179 295 193 27 11 142 14 636 14 663 0 860
9 959 41 91 29 191 91 268 166 l66 65 -70 -57 c-79 -63 -183 -118 -265 -140
-46 -12 -187 -15 -865 -15 -805 0 -810 0 -845 -21 -19 -12 -45 -30 -57 -42
-27 -24 -30 -11 -12 42 15 42 6 50 -90 86 -165 62 -308 191 -387 350 -64 130
-74 189 -74 458 0 125 -3 227 -7 226 -5 0 -18 -13 -31 -29z"/>
</g>
</svg>